<mxfile host="65bd71144e">
    <diagram id="OkoPRp2aQTKfuNwft3Bj" name="Page-1">
        <mxGraphModel dx="876" dy="659" grid="1" gridSize="10" guides="1" tooltips="1" connect="1" arrows="1" fold="1" page="1" pageScale="1" pageWidth="850" pageHeight="1100" math="0" shadow="0">
            <root>
                <mxCell id="0"/>
                <mxCell id="1" parent="0"/>
                <mxCell id="2" value="" style="endArrow=none;html=1;" edge="1" parent="1">
                    <mxGeometry width="50" height="50" relative="1" as="geometry">
                        <mxPoint x="240" y="240" as="sourcePoint"/>
                        <mxPoint x="240" y="80" as="targetPoint"/>
                    </mxGeometry>
                </mxCell>
                <mxCell id="3" value="" style="endArrow=none;html=1;" edge="1" parent="1">
                    <mxGeometry width="50" height="50" relative="1" as="geometry">
                        <mxPoint x="160" y="160" as="sourcePoint"/>
                        <mxPoint x="320" y="160" as="targetPoint"/>
                    </mxGeometry>
                </mxCell>
                <mxCell id="11" value="" style="shape=stencil(fZFNEoMgDIVPky2DiVS6tvYezoiVqQUHsT+3LwyLik7dPRK+vPAAquehnRQgn72zd/XSnR+ALoCozaCc9kEBNUB1b526ObuYLp2nNt6M6mGfccI7cQXnjPOIIf/sSteEjNqsEFkwiRlxJkb0HzhJVsgMqMShQylYKTJAHK+EyCrKADx22D16Oz+IX2S9HseU+Lq/jTiU0vdQ8wU=);fillColor=none;strokeColor=default;" vertex="1" parent="1">
                    <mxGeometry x="210.86956787109386" y="86.30433190387237" width="3.826094917629076" height="3.4782608695652177" as="geometry"/>
                </mxCell>
                <mxCell id="12" value="" style="shape=stencil(lVnZchNBDPwav6rmPp4D/AdVJMRFSKgQrr9Hi9HE0ox74zd7rd6ZHbVarfUh3ny///jt9hDc95fnpy+3v46fXu4P8d0hhOPj/e3z8YU/HeL7Q7y5e3q+/fz89OPx0+n7t49b5Pbp69PP7Q6/TzhPzm+g4P7IhVb+XfhwCn84Pp6FO4pJhQcqDYWHrMIjRYfCnVPhiXK6IjxTrVdsptL27XJ41ifTqMCTqUUfpCMPnnU+eE81XxMfKVx1/0QFHOYcX8iB1M7xlXJE8cGcT6MOsuUpB800zp9H8f9zP+J5RfC8gZy5P18B+V3Ft35NfKQK9j/HY/IHCuZ5MfuDZGfEV0qA/pGcie8UAB+i7HaUuhetWMYnciY+UgJ85tMwUpKFUcv4TM7EF+rg/DNlzc/Y5MqF+Kb5HztVwIci7Bra5uWE3xiPpbZQ1PtJiSK8f9b8SZk6uH8lZ+IrNZBfVoOm4zsleP+m+ZY9ebD/Jk834gN1cP6cza7jsR52ciYe62GnYppRpQ7v3zQ/M+bPazsRQPFUUMPgXq1XKFiBGNA05Uomj1bgCjcAZiF6hkBei1ypVFDTYI3VLCqNGuoaUZI6mvxOG06y4wHAuuXHmQxAEKpfAnRdmTWKdqwBhYoutYqlzg8lHwCsddx6vT7W2oQslwDFnFKXeloDOnkNaMwu0G4Y0PWxtp1+7Khr8rWdBhvE7g1AFv6uAVEEawAKNcAl7gnGYbYmV9aAYk1Lw02WVSzoLXUnur/uys62we6lka4B3vaFjunNbdsIcecaRFvKVpd6ogREIFaKZku4HrgTm5ruhQJgK7diU3Edm1nurYbeHbvZVOTnAcByn6fhxrtxaY2YHBsvEUHm8mQxOlaBPPVEPiYPUl0mvefMNWRiEnX91MyNBra09Q9TEJh9ZdIZ5ncEmeN2UM0zYGPC6h50HrioO0hcTTKonMkGanJ11pkdL1bsMNVwo66VqpE+PI1wOwhG78eAsrZj3pKPb+EBNVqwhrJiQ8Y7NmytOw4xW4e14x0YYA1Tk6lmDShXGqat4WjZ4AqpaIVJK9n0ObTCMGBntjKhFZqIyplxhYlrMiefOWOkGlwuxVhjLALcA4s+1oxreqtgA8CZZkDXBbQz/fRgdSlhs8GyZSxZwoljQNeqsTNQbl3WTNxN3lldAvSrRmgW9zTN6A4lLotjGwBcogwwpi9iMd4av15hG+wQNQolvcI2+aKHnjp7wFMT98xkAFFeNV4CVPMqBltjBnTNpYDN9wzw2J3MW9p5mzc/tMdeo1fr1v1Y84158FhmFoCdCX/e0g6954dO8pbvrXnYqYdmR5RtxEbUaNI+zl47o3GXPaQxJ96JmbgESMYkyux4Kb4aM4MnfDc5YyzFCwAe4xYA/Gp1AcBdegGI0mDeDkDdYQHAfmwBwO/P57w5SqjcJl7gcWYm3k58k0p5jS/qSPnD679gd8eHh9OfaOe/23/N+NLpH7f4/i8=);fillColor=none;strokeColor=default;" vertex="1" parent="1">
                    <mxGeometry x="207.04347295346474" y="77.78260670537543" width="68.86960236922555" height="84.34782276982847" as="geometry"/>
                </mxCell>
                <mxCell id="13" value="" style="endArrow=none;html=1;" edge="1" parent="1">
                    <mxGeometry width="50" height="50" relative="1" as="geometry">
                        <mxPoint x="440" y="239.78" as="sourcePoint"/>
                        <mxPoint x="440" y="79.78" as="targetPoint"/>
                    </mxGeometry>
                </mxCell>
                <mxCell id="14" value="" style="endArrow=none;html=1;" edge="1" parent="1">
                    <mxGeometry width="50" height="50" relative="1" as="geometry">
                        <mxPoint x="360" y="159.78" as="sourcePoint"/>
                        <mxPoint x="520" y="159.78" as="targetPoint"/>
                    </mxGeometry>
                </mxCell>
                <mxCell id="15" value="" style="shape=stencil(lVnLbhsxDPwaXwlJJPU4p+1/BIjTGE3jwElff18ujHUtajOqb44zs5aoITnU7vju7en+db9L4e39dPy2/3V4eH/a8addSoeXp/3p8G6fdvx5x3ePx9P+6+n44+Xh/Pfr/YJcPn0//lye8PvMCxTCQkrhz/mLGC5ffTkTng8viNAaab0Nn/It+EpFbsPHeAu+kBSETw6fqSnCy4CXhPA59nil2hC+DniG6/d4ocwf4yMFh2cqYD2RksMnGJ9IOXk80pv91+EjRaCfRIl7fFhX+AE+9/jaJs+vDo/1xhSkxxcKID5M4vB58vzs8Arzi6lqjxeoT1lXe8EzzHeh5PAJ6s1+3eFNIfD5Nff4AOvDJRorvjT4fF2rwQWP649SdvgC88Wy2+EzjE+m4PAK458p1R4vpPD54vD4fEc8zvctPNLbiI8wnnk9zSs8yt9M1eEDXE+h1Dp8xv2uUHb4CuNT1mp/hUf1yqpN319ygesZ8bh/beEZxKcSOzzWZyV1eIH5ZdHr+0tm2B8b8YBH9dZO0+GxPhuVvh9lrM9GbcCj+hzDmq4XQsANOxL3HUAb7tiJWD0BhSgycV9DFWs0ympJLoQCTUo0D9NnpWaoipi9zTICshHRXF5/zqrQ90XbYvIEGKXmnYfiyrtYRfUEaIWsM7pzYKilxay4c0h4SbaAvhopVre1M5f+OrFnmdSFFcvbCmQTT0CGaKkAfVgFd3w2A1E8AamVE8XmCWjTLN5US6UK5M0mZvYEdHBcSbInoChJ9CctBfsuXtvAFQFFSZSieAKKkpg03B5wq7LnteoJqGos59o8AYVVh2lIcDfUYZwwAiqVOvhlwX5fB0M4IwwOY0YYWtyEYB1N5SYCr0L4X4J5hOGkIWHoDzNC8XPyjNCGFMUdyHxmclFSWFtL9KOL4Ja1OOviCahlFR6kgVtWGcq94NsBG4acmxE8Dtp01tymcUOx8bL0e2Bs0G0+dhM8F+go61BbGed0Cz6sjO9cmu2hFx8z3HQTim4PEbvioRgbAdpi02ZflxjPSS17k5hw213u0RwBT0rNtNTLO+GDW24C+6qRcH8wgjqC4j1UL740OemRwLf+Ak6gDUKE+bBBwDdmIyFiN7NBwNZhg4BL5QYB32oZoTnCJOOa93w2RqH+sEHAhWyDgI3uSJgcw+B+8M234asb1eF6rt4cXGo3TujhB+TGDTPewJjOM536egHN3oifZppbT5itx4l0UoKt4AaH7x2Jffj3Iujx8Px8fo90/X//4si+Or904s9/AQ==);fillColor=none;strokeColor=default;" vertex="1" parent="1">
                    <mxGeometry x="402.52174974524473" y="78.30435446034312" width="85.91305940047555" height="165.21738467009172" as="geometry"/>
                </mxCell>
                <mxCell id="16" value="" style="endArrow=none;html=1;" edge="1" parent="1">
                    <mxGeometry width="50" height="50" relative="1" as="geometry">
                        <mxPoint x="241.48" y="440" as="sourcePoint"/>
                        <mxPoint x="241.48" y="280" as="targetPoint"/>
                    </mxGeometry>
                </mxCell>
                <mxCell id="17" value="" style="endArrow=none;html=1;" edge="1" parent="1">
                    <mxGeometry width="50" height="50" relative="1" as="geometry">
                        <mxPoint x="161.48" y="360" as="sourcePoint"/>
                        <mxPoint x="321.48" y="360" as="targetPoint"/>
                    </mxGeometry>
                </mxCell>
                <mxCell id="18" value="" style="shape=stencil(lVlJchsxDHyNrijuIM9Z/pGqKLEqju2yne33wUQBLYJ0y3OzJbSGIBvdAOcQ3z3dfHo4HoJ7en68/3b8dfr8fHOI7w8hnO5ujo+nZ/nrED8c4rsv94/Hr4/3P+4+n/9/+LRFbn99v/+5/cLvM86RcxsouD/nD1qizP8++XiOvz3dXYmPYV+8b3viI1W3Lz75PfGBStoT76mWffFuV76OPNzPUIb42shnFJ/9GM/EYD2y2jDGFwpgf7z+Wo8XPoDzCpTzGO+p1dfjo7JL47lRAfkmcnWMZ4oRxddxPZwhPzOVcT856oks4wuVOMY7amA9TGnkQ6mQz5X8yIdSIN8qFR7jIzFYf9XV9vigDFnGN0ppjHdUwO/LaY78yQ3yp1EbzyuzfrLmpxTMuKG5UEYF4CiNO5qFI6gCHPFIiSyUQE/wFEZOZ6ki9AQpEbNJDpLUBz1TBaSKc4iUxyUlxjkk/boDMs4hkxsPLolQgMIXQDVLClRB5fiiKXaAbDR6gtTOeHBRuIdykK/HpCPDYgid+x2QlO9rgJz0mEMUwQTlI3razBMcVaAXIqhtFMitZNETkp5rB4gioRyytSgRtYaWJMxhC2AEKNakBJDROUjJRwtAriBfO5N0gfTeFjDSe8sKkE820RjbZkUo6ars74AIOxc51zyyVciSkNU6iubgPOztotdWpQOc2tEaEMiP2yo12ACXBNDGEvUMRSBG628iCwX0s1KQxrBEeBgYUMzWUEQLG9qlTM0sKULLikK1aAER5cDaonWANLUoB7b+4LGrx0rB5OC1sXkNwNUCUB8p0msMRXy1ol1qOhdcAALYpeRUSXurTRWUg7iHYxOPOhOJN/5ToeylfkYv8bBTFWqP1cZar+v4rINBb8WUuet4KZTxyHDfIy0Fj+vBbY/0LEbmu9mt46dRwWkhreOT1TvcJEkfaNSrz2Lr+Kk1v/L7U6stBAR8y1MrjPMtbtIV3bB1/NQUBmiaJdkCi0qQdTzr4NG7VAqAz6Wpfb3w2YN8eeqNcH1x0sdfCAQaRbjYWVZUMQFGyChqhs0ryi6zbjQAbDY12vFL/A+Zfp3NpsH7nDpZwUYjNHDK75nWCPchzdlGXoiBCqEFS6Qr/WDr9njRBDu0pDQ18gFqacs6hF808sg8WqE0Hpx4LrLkxiomXX3xRZAAeCxPMZSEkmY7KsgExoAaC0ChhnOwADx2zoDNJNC2zgAsYvMuiU2g+xoBJHPBgO8L5oPLWJeEGkbHCm6NFgAsM/OSSoGT8Jx0qdfYas7hyrVWk5lxLFHGw0ibugvRc4ee0Kzc8xWZaTrGXlwVevwEMwlzhSLg3XS7W502cW98xJXr0TlrsQyPyDTta016DfIaIJgb5Ky298aSq0Xvft7IPjGlsKuCaoUmN6uxuBijoy7aivTeX1wMqUDWGbAD8HuCBQC/iFgA8JuOBQC/elkC2r4c8CXgAlBgsyEAc4HWGF5vz0YtADT/LwBV6fjWJTUsTBP5LnThP0L+eHlB9+V0e3t+v3f5vX2hJx+dXwbGD38B);fillColor=none;strokeColor=default;" vertex="1" parent="1">
                    <mxGeometry x="207.04347295346474" y="355.5217285156251" width="68.17390773607337" height="89.7391410495924" as="geometry"/>
                </mxCell>
                <mxCell id="19" value="" style="endArrow=none;html=1;" edge="1" parent="1">
                    <mxGeometry width="50" height="50" relative="1" as="geometry">
                        <mxPoint x="440" y="440" as="sourcePoint"/>
                        <mxPoint x="440" y="280" as="targetPoint"/>
                    </mxGeometry>
                </mxCell>
                <mxCell id="20" value="" style="endArrow=none;html=1;" edge="1" parent="1">
                    <mxGeometry width="50" height="50" relative="1" as="geometry">
                        <mxPoint x="360" y="360" as="sourcePoint"/>
                        <mxPoint x="520" y="360" as="targetPoint"/>
                    </mxGeometry>
                </mxCell>
                <mxCell id="22" value="" style="shape=stencil(lVnLchs5DPwaXVF8gzhnk/9IVZy1Ko6dcpzs5u/TWpmTISj3SjdZ7p4hQaDRoA753ff7j9/uDil8f3l++nL3z/HTy/0h/3VI6fh4f/d8fMGnQ35/yO8+Pz3f/f389OPx0/nvbx9PyNOnr08/T0/498wLEsKJlMKv8UVs/33x4Qx/OD5OcK0O/sp/A16bh5eb4HwxqTt4oYtZttr1hqdHKRTu1p4kdgbvZYJnCfFteBw7G/AiiWw1iukEr1LJ05PUPMFVQn0bniXPT++iicFtfnrEsZIsKFJsxkepJPJV8hzKmERJ2lSxOZYxi5LoNFH3/CJKjlYlu+dX6SScOtJwwyutki7FxbOPCLyBf93dhjdREs8uNscfyWoknis+Sci34Y3E0yTN8UFGNWP4OmvUKaPI+Zr0OZ6njCL7XfFtnMiV61GppHjX/XbpBL/G06iwLfiM86X54/FROon/km8Z9UjzweVzzlLoeuIcz1xovi31BXy7CV8lkvhfwutN+CaJxPMSnsffx0dpPq/xV6rn6/l2CTflWx8VcV3+Z6P9YqlH4BtZf9zkbEdgAoR+kmdCCTQj0CBC8YTE2nsdFbIjZJKjaBEleQJrktD83D3ByBvgIfKcRiVSN3ayBdETmB+DzDqHBUIjBw2ddbYGBNbpkXpt2UMnJw0lbC6siRpcSJtr9iBEZoaKz24QEjkHFHtdlsSMKKqrdE/o5A1IBJ98mRY0nqfBEwrZdIHgNk9gFqrgpF0uFe4Z+zjXHaGRiqtxHNNGqBKIqlYEMXpCZTazjJLfEYxEqbYxMWyENirkMmHpDCAwn18XKwKCEilucUk+lci8chpb3BEye8MqlUq7Z0MzVk9g9qW1MVlthE5HMxCqekIlBdRWMe7UYYNg7qTR4tgbsIDiCZm9YZV7G7Jw2WSgQSVPaMzFxKEROwKzDSD4mjY6V2jylw010KlX81jxjsCchpZhNHcEI+mtS8uCjiRyDiC4OR8EJdmqzU/6EJ7Ewro0RRDYeKTqp/2auf/sft6HtLGmCIKb+EFgE7ba6AYbodKRqi99GuKZmMeFFWmeYMy0JqluSUrVu2dvi+tmfC8TihfjarRPd4yls5FugXbRvlgH6DmdxHT4r42AXGJvMK/eLdNNW5Aybxp6zrTV4sjNjaAS2G1BHJctG6HTirM0pHe7/QqjxVxL4FeDILj+AGlr7IYh+f4AaWPZatn3hz9KdZlQfH+AjrC2a9X3B1R5YlMcRpr54FDlLJesjal8u1aMVPkMVmR+A4q2sSWpbyiowciytfuRBjVIz6H7DoSSYhOKLb4VJVVZti6EU4Wwg7MxtW2ERE0iCK4pIrtoamx9fyMUekERw3IVj8On99kXGP9zibYuqg8Dfy3BhnxeGafdKl8Z+PDnh5fPx4eH8+82+//7H2rw1flHnvz+Nw==);fillColor=none;strokeColor=default;" vertex="1" parent="1">
                    <mxGeometry x="404" y="280.5333150227865" width="71.20001220703125" height="168.26667277018225" as="geometry"/>
                </mxCell>
                <mxCell id="23" value="Positive K" style="text;html=1;align=center;verticalAlign=middle;whiteSpace=wrap;rounded=0;" vertex="1" parent="1">
                    <mxGeometry x="80" y="145.91" width="60" height="30" as="geometry"/>
                </mxCell>
                <mxCell id="24" value="Even P" style="text;html=1;align=center;verticalAlign=middle;whiteSpace=wrap;rounded=0;" vertex="1" parent="1">
                    <mxGeometry x="207.04000000000002" y="40" width="60" height="30" as="geometry"/>
                </mxCell>
                <mxCell id="26" value="Odd P" style="text;html=1;align=center;verticalAlign=middle;whiteSpace=wrap;rounded=0;" vertex="1" parent="1">
                    <mxGeometry x="395" y="40" width="60" height="30" as="geometry"/>
                </mxCell>
                <mxCell id="27" value="Negitive K" style="text;html=1;align=center;verticalAlign=middle;whiteSpace=wrap;rounded=0;" vertex="1" parent="1">
                    <mxGeometry x="80" y="340" width="60" height="30" as="geometry"/>
                </mxCell>
            </root>
        </mxGraphModel>
    </diagram>
</mxfile>